<?xml version="1.0" encoding="UTF-8" standalone="no"?>
<!-- Created with Inkscape (http://www.inkscape.org/) -->

<svg
   version="1.1"
   id="svg2"
   width="682.66669"
   height="682.66669"
   viewBox="0 0 682.66669 682.66669"
   xmlns="http://www.w3.org/2000/svg"
   xmlns:svg="http://www.w3.org/2000/svg">
  <defs
     id="defs6">
    <clipPath
       clipPathUnits="userSpaceOnUse"
       id="clipPath20">
      <path
         d="M 0,512 H 512 V 0 H 0 Z"
         id="path18" />
    </clipPath>
  </defs>
  <g
     id="g10"
     transform="matrix(1.3333333,0,0,-1.3333333,0,682.66667)">
    <path
       d="M 0,0 H 512 V 512 H 0 Z"
       style="fill:#936fb1;fill-opacity:1;fill-rule:nonzero;stroke:none"
       id="path12" />
    <g
       id="g14">
      <g
         id="g16"
         clip-path="url(#clipPath20)">
        <g
           id="g22"
           transform="translate(83.585,269.6538)">
          <path
             d="m 0,0 c 0,0 49.558,16.203 72.43,35.264 0,0 -27.636,-41.935 -93.397,-89.584 0,0 -22.87,-15.25 -14.294,-25.733 0,0 25.733,-75.292 202.043,-82.914 0,0 151.627,-0.65 171.542,-4.767 19.221,-3.971 44.795,-39.073 44.795,-39.073 0,0 4.766,25.731 -31.45,44.792 -25.707,13.53 -63.112,10.146 -59.089,10.484 6.648,0.556 -134.376,-4.764 -215.384,19.063 -81.008,23.821 -98.163,60.993 -98.163,60.993 0,0 37.17,27.638 61.946,51.463 24.781,23.825 60.995,64.804 64.807,71.475 3.813,6.672 2.859,14.296 -2.859,14.296 -5.717,0 -22.873,-6.671 -34.309,-14.296 C 57.182,43.839 2.86,14.296 0,0"
             style="fill:#ffffff;fill-opacity:1;fill-rule:nonzero;stroke:none"
             id="path24" />
        </g>
        <g
           id="g26"
           transform="translate(341.2939,251.334)">
          <path
             d="m 0,0 c 0,0 -44.028,5.663 -84.914,40.887 0,0 -13.209,15.096 -18.871,11.949 0,0 1.889,-34.595 -0.63,-66.045 -2.515,-31.45 -9.434,-90.574 -13.837,-96.864 -4.402,-6.29 -10.693,1.257 -11.322,4.404 -0.628,3.145 10.064,61.01 10.694,94.347 0.249,13.195 0.703,27.323 0.628,42.774 -0.115,23.588 -2.295,48.798 1.887,50.318 6.92,2.518 15.097,5.663 40.258,-23.272 C -50.948,29.564 -10.692,5.032 0,0"
             style="fill:#ffffff;fill-opacity:1;fill-rule:nonzero;stroke:none"
             id="path28" />
        </g>
        <g
           id="g30"
           transform="translate(192.8506,410.4712)">
          <path
             d="m 0,0 c 0,0 16.354,14.469 20.129,20.129 3.774,5.663 13.209,8.177 13.209,8.177 0,0 3.222,1.181 1.807,-3.772 -1.415,-4.953 0.707,-11.559 1.886,-15.802 1.18,-4.247 7.313,-40.808 7.785,-44.347 0.472,-3.538 0.472,-7.076 -2.832,-8.49 -3.3,-1.416 -6.367,1.414 -8.49,4.48 -2.123,3.067 -10.851,30.665 -10.851,32.315 0,1.652 0.708,7.312 -1.888,7.312 -2.594,0 -9.906,-5.66 -14.386,-8.49 -4.483,-2.832 -17.692,-13.682 -17.219,-16.276 0.471,-2.595 4.717,-9.907 7.784,-13.918 3.066,-4.009 17.218,-21.699 16.51,-25.238 -0.707,-3.537 -3.302,-5.896 -8.492,-4.953 -5.188,0.944 -17.452,11.086 -24.295,23.588 -6.839,12.502 -9.669,13.917 -10.614,14.86 -0.943,0.944 -3.302,5.189 -0.943,9.671 2.36,4.48 12.736,8.02 16.274,10.614 C -11.087,-7.544 0,0 0,0"
             style="fill:#ffffff;fill-opacity:1;fill-rule:nonzero;stroke:none"
             id="path32" />
        </g>
        <g
           id="g34"
           transform="translate(192.2212,65.7803)">
          <path
             d="m 0,0 c 0,0 13.209,9.435 16.984,20.758 3.774,11.321 -1.259,9.434 -4.404,6.29 C 9.436,23.903 5.66,4.403 0,0"
             style="fill:#ffffff;fill-opacity:1;fill-rule:nonzero;stroke:none"
             id="path36" />
        </g>
        <g
           id="g38"
           transform="translate(438.4551,385.3965)">
          <path
             d="m 0,0 c 3.366,-1.595 6.025,-3.248 7.976,-4.962 1.77,-1.417 3.072,-2.804 3.898,-4.163 0.59,-1.004 0.886,-1.979 0.886,-2.926 0,-1.89 -0.591,-2.835 -1.771,-2.835 -0.473,0 -0.917,0.148 -1.331,0.444 -0.472,0.295 -0.946,0.975 -1.418,2.037 -1.122,2.482 -2.333,4.462 -3.632,5.937 -1.36,1.655 -3.219,3.367 -5.584,5.139 z m -25.874,56 c 2.599,-0.648 6.055,-0.973 10.368,-0.973 h 4.874 v 1.329 c 0,3.189 -0.12,5.552 -0.356,7.088 2.894,-0.355 5.288,-0.977 7.177,-1.861 0.65,-0.354 0.976,-0.798 0.976,-1.33 0,-0.531 -0.266,-0.885 -0.8,-1.061 -0.767,-0.533 -1.68,-0.857 -2.746,-0.977 v -3.188 h 8.95 l 3.899,3.897 c 1.889,-1.417 3.664,-2.778 5.316,-4.076 0.413,-0.295 0.621,-0.59 0.621,-0.885 0,-1.005 -0.355,-1.506 -1.062,-1.506 H -6.381 v -6.734 h 7.444 l 3.545,3.544 c 1.83,-1.241 3.544,-2.482 5.138,-3.723 0.413,-0.236 0.621,-0.531 0.621,-0.886 0,-0.886 -0.355,-1.328 -1.061,-1.328 H -6.381 v -7.443 h 8.95 l 3.899,3.899 c 1.889,-1.417 3.664,-2.777 5.316,-4.076 0.413,-0.296 0.621,-0.622 0.621,-0.976 0,-0.944 -0.355,-1.418 -1.062,-1.418 H -6.381 v -3.898 c 0,-1.122 -0.797,-1.683 -2.39,-1.683 -1.479,0 -2.217,0.678 -2.217,2.038 0,0.768 0.059,1.743 0.178,2.924 0,0.236 0.029,0.443 0.089,0.619 h -4.785 c -4.194,-0.059 -7.031,-0.176 -8.507,-0.353 l -1.861,3.898 c 2.599,-0.65 6.055,-0.974 10.368,-0.974 h 4.874 v 7.443 h -2.748 c -4.194,-0.059 -7.059,-0.177 -8.594,-0.354 l -1.685,3.897 c 2.54,-0.768 5.967,-1.15 10.279,-1.15 h 2.748 v 6.734 h -4.874 c -4.194,-0.059 -7.031,-0.179 -8.507,-0.356 z m -6.29,-53.164 c 3.248,-1.122 5.818,-2.304 7.707,-3.545 1.655,-0.945 2.925,-1.921 3.811,-2.923 0.59,-0.65 0.886,-1.301 0.886,-1.95 0,-1.948 -0.62,-2.923 -1.859,-2.923 -0.475,0 -0.918,0.118 -1.328,0.353 -0.417,0.178 -0.83,0.682 -1.243,1.508 -1.184,1.77 -2.392,3.248 -3.634,4.43 -1.358,1.18 -3.19,2.421 -5.491,3.721 z m -14.178,-0.62 c 3.013,-0.355 5.641,-0.857 7.886,-1.506 0.59,-0.178 0.887,-0.533 0.887,-1.064 0.057,-0.473 -0.297,-0.916 -1.065,-1.329 -1.064,-0.531 -2.009,-0.887 -2.835,-1.064 v -9.304 c 0,-0.411 0.118,-0.795 0.355,-1.151 0.176,-0.413 0.502,-0.737 0.974,-0.975 0.472,-0.294 1.182,-0.501 2.128,-0.62 1.593,-0.295 3.781,-0.443 6.557,-0.443 h 9.481 c 2.953,0 5.108,0.089 6.468,0.265 0.944,0.12 1.86,0.237 2.747,0.356 0.825,0.296 1.358,0.59 1.594,0.886 0.413,0.354 0.738,0.856 0.977,1.505 0.589,1.833 1.179,4.845 1.77,9.04 l 1.684,-0.709 v -5.937 c 0,-1.714 0.206,-2.719 0.621,-3.014 1.711,-0.649 2.568,-1.564 2.568,-2.747 0,-0.413 -0.148,-0.767 -0.442,-1.062 -0.238,-0.297 -0.828,-0.65 -1.772,-1.064 -1.182,-0.531 -2.747,-0.886 -4.696,-1.063 -2.187,-0.235 -6.026,-0.355 -11.519,-0.355 h -9.481 c -3.723,0 -6.44,0.207 -8.152,0.62 -1.48,0.177 -2.66,0.533 -3.545,1.063 -0.827,0.534 -1.418,1.154 -1.772,1.861 -0.296,0.828 -0.443,1.566 -0.443,2.215 v 10.633 c 0,1.595 -0.324,3.249 -0.975,4.963 M -66.634,56 c 2.541,-0.648 5.967,-0.973 10.28,-0.973 h 6.467 v 1.329 c 0,3.189 -0.119,5.552 -0.353,7.088 2.836,-0.355 5.196,-0.977 7.088,-1.861 0.708,-0.354 1.063,-0.798 1.063,-1.33 0,-0.531 -0.296,-0.885 -0.886,-1.061 -0.826,-0.533 -1.743,-0.857 -2.746,-0.977 v -3.188 h 7.174 l 3.902,3.897 c 1.889,-1.417 3.661,-2.778 5.315,-4.076 0.473,-0.295 0.709,-0.59 0.709,-0.885 0,-1.005 -0.384,-1.506 -1.151,-1.506 h -15.949 v -6.734 h 5.758 l 3.456,3.544 c 1.831,-1.241 3.544,-2.482 5.139,-3.723 0.413,-0.236 0.621,-0.531 0.621,-0.886 0,-0.886 -0.355,-1.328 -1.064,-1.328 h -13.91 v -7.443 h 7.174 l 3.902,3.899 c 1.889,-1.417 3.661,-2.777 5.315,-4.076 0.473,-0.296 0.709,-0.622 0.709,-0.976 0,-0.944 -0.384,-1.418 -1.151,-1.418 h -15.949 v -3.898 c 0,-1.122 -0.828,-1.683 -2.482,-1.683 -1.359,0 -2.037,0.678 -2.037,2.038 0,0.768 0.056,1.743 0.177,2.924 0,0.236 0.028,0.443 0.086,0.619 h -6.377 c -4.136,-0.059 -6.944,-0.176 -8.419,-0.353 l -1.861,3.898 c 2.541,-0.65 5.967,-0.974 10.28,-0.974 h 6.467 v 7.443 h -3.897 c -4.195,-0.059 -7.032,-0.177 -8.508,-0.354 l -1.86,3.897 c 2.599,-0.768 6.053,-1.15 10.368,-1.15 h 3.897 v 6.734 h -6.467 c -4.136,-0.059 -6.944,-0.179 -8.419,-0.356 z m 9.924,-56.709 h 1.418 c 0,-3.012 -0.384,-5.551 -1.151,-7.619 -0.474,-1.536 -1.183,-2.893 -2.127,-4.077 -0.709,-1.002 -1.625,-1.83 -2.746,-2.481 -0.592,-0.472 -1.301,-0.797 -2.127,-0.973 -0.532,-0.237 -1.094,-0.356 -1.683,-0.356 -1.479,0 -2.216,0.563 -2.216,1.684 0,0.296 0.237,0.59 0.708,0.886 2.01,1.183 3.634,2.333 4.874,3.455 1.475,1.183 2.568,2.453 3.278,3.811 0.826,1.475 1.418,3.365 1.772,5.67 m -1.328,26.583 c 2.304,-0.415 5.582,-0.62 9.835,-0.62 h 42.266 l 2.392,2.834 c 3.071,-1.889 4.608,-3.19 4.608,-3.897 0,-0.65 -0.796,-1.507 -2.391,-2.569 v -4.875 h 5.936 l 3.897,3.899 c 1.891,-1.417 3.694,-2.778 5.406,-4.076 0.474,-0.296 0.71,-0.621 0.71,-0.974 0,-0.945 -0.355,-1.417 -1.064,-1.417 H -1.328 V 8.95 C -0.504,8.24 0.267,7.619 0.976,7.089 1.271,6.854 1.418,6.645 1.418,6.469 1.418,5.523 1.182,5.051 0.71,5.051 h -50.597 c -4.195,-0.059 -7.03,-0.178 -8.506,-0.355 l -1.861,3.899 c 2.6,-0.769 6.056,-1.151 10.367,-1.151 h 44.303 v 6.735 h -52.099 c -4.196,-0.061 -7.031,-0.151 -8.506,-0.267 l -1.861,3.899 c 2.597,-0.71 6.053,-1.064 10.367,-1.064 h 52.099 v 5.937 h -42.619 c -4.726,0 -7.562,-0.119 -8.507,-0.353 z"
             style="fill:#ffffff;fill-opacity:1;fill-rule:nonzero;stroke:none"
             id="path40" />
        </g>
        <path
           d="m 435.62,331.187 h -16.925 v -28.089 h 16.925 z m -32.518,3.543 c 2.538,-0.768 5.935,-1.15 10.188,-1.15 h 29.065 l 3.896,4.34 c 2.128,-1.477 4.138,-2.954 6.025,-4.43 0.535,-0.297 0.8,-0.621 0.8,-0.975 0,-0.887 -0.355,-1.328 -1.064,-1.328 h -12.139 v -28.09 h 3.545 l 4.343,4.697 c 2.065,-1.595 4.044,-3.16 5.934,-4.697 0.473,-0.295 0.708,-0.65 0.708,-1.062 0,-0.887 -0.353,-1.329 -1.061,-1.329 h -13.469 v -35.178 c 0,-1.299 0.088,-2.186 0.266,-2.659 0.119,-1.062 0.177,-1.918 0.177,-2.569 0,-1.949 -0.945,-2.924 -2.837,-2.924 -1.477,0 -2.214,0.503 -2.214,1.506 0,1.242 0.058,2.836 0.176,4.785 0.119,2.068 0.179,3.87 0.179,5.404 v 31.635 h -16.925 c -0.119,-4.372 -0.502,-8.242 -1.15,-11.609 -0.711,-4.017 -1.921,-7.768 -3.634,-11.253 -1.774,-4.018 -3.9,-7.412 -6.38,-10.19 -2.836,-3.248 -6.796,-6.675 -11.874,-10.278 l -1.505,1.861 c 4.548,3.367 8.034,6.498 10.455,9.393 2.126,2.715 3.869,5.433 5.227,8.152 1.241,2.479 2.334,5.758 3.278,9.835 0.826,3.485 1.271,8.18 1.33,14.089 h -2.214 c -4.137,-0.06 -6.942,-0.178 -8.417,-0.355 l -1.863,3.899 c 2.598,-0.768 6.025,-1.153 10.28,-1.153 h 2.214 v 28.09 h -1.152 c -4.135,-0.06 -6.97,-0.178 -8.505,-0.354 z M 389.1,283.692 c 0.236,0.414 0.444,0.856 0.621,1.329 2.301,5.198 4.253,11.254 5.848,18.165 0.591,3.071 1.034,5.995 1.329,8.772 -1.654,-0.236 -3.28,-0.502 -4.876,-0.797 -2.42,-0.415 -4.902,-0.799 -7.441,-1.153 -1.003,-3.543 -1.978,-6.734 -2.923,-9.569 -1.241,-3.663 -2.749,-7.382 -4.519,-11.163 3.66,-1.241 6.882,-2.718 9.659,-4.431 0.826,-0.356 1.594,-0.739 2.302,-1.153 m -3.811,55.646 c 3.19,-1.181 5.939,-2.303 8.242,-3.367 0.414,-0.414 0.621,-0.828 0.621,-1.241 0,-0.709 -0.564,-1.181 -1.685,-1.417 -1.359,-0.296 -2.333,-0.442 -2.923,-0.442 -1.065,-6.144 -2.305,-12.081 -3.722,-17.811 -0.12,-0.533 -0.236,-0.946 -0.353,-1.241 1.239,0 2.42,0.03 3.544,0.089 2.774,0.176 5.461,0.355 8.063,0.531 0.176,1.831 0.265,3.633 0.265,5.406 0,1.181 -0.118,2.245 -0.355,3.19 2.54,-0.415 4.845,-0.916 6.911,-1.506 0.593,-0.179 0.888,-0.503 0.888,-0.976 0,-0.414 -0.474,-0.887 -1.419,-1.417 -1.064,-0.592 -1.89,-0.976 -2.48,-1.152 -0.061,-1.122 -0.148,-2.246 -0.268,-3.367 2.244,0.176 4.372,0.383 6.382,0.619 v -1.505 c -2.187,-0.415 -4.372,-0.799 -6.557,-1.153 -0.535,-4.724 -1.33,-9.067 -2.394,-13.024 -1.713,-6.617 -3.809,-12.435 -6.29,-17.456 1.357,-0.946 2.599,-1.89 3.721,-2.835 2.304,-1.833 3.87,-3.251 4.698,-4.255 0.647,-0.768 1.092,-1.625 1.327,-2.569 0.296,-0.768 0.443,-1.623 0.443,-2.569 0,-1.24 -0.56,-1.861 -1.682,-1.861 -0.416,0 -1.153,0.709 -2.217,2.127 -0.885,1.358 -2.778,3.425 -5.669,6.201 -0.889,0.946 -1.746,1.743 -2.572,2.394 -2.184,-3.899 -4.401,-7.208 -6.645,-9.924 -3.251,-4.077 -7.384,-7.885 -12.404,-11.431 l -1.329,1.861 c 5.375,4.076 9.569,8.241 12.582,12.493 1.948,2.599 3.81,5.522 5.581,8.772 -1.358,1.064 -2.599,1.92 -3.72,2.57 -2.482,1.831 -5.051,3.189 -7.71,4.076 -0.177,0.058 -0.296,0.118 -0.354,0.178 -0.532,0.235 -1.034,0.411 -1.506,0.531 l 0.177,0.267 -0.177,0.088 c 1.83,4.785 3.307,9.332 4.43,13.645 0.707,2.421 1.36,4.963 1.95,7.622 -1.892,-0.239 -3.781,-0.444 -5.671,-0.622 -0.946,-2.127 -1.625,-3.189 -2.038,-3.189 -0.177,0 -0.413,0.176 -0.708,0.531 -1.361,2.186 -2.541,4.578 -3.544,7.176 4.252,0 8.533,0.089 12.847,0.267 0.058,0.235 0.089,0.413 0.089,0.532 0.885,4.489 1.682,8.743 2.392,12.76 0.531,3.72 0.944,7.856 1.239,12.404"
           style="fill:#ffffff;fill-opacity:1;fill-rule:nonzero;stroke:none"
           id="path42" />
        <g
           id="g44"
           transform="translate(407.3535,199.2656)">
          <path
             d="m 0,0 c 2.539,-0.767 5.964,-1.152 10.278,-1.152 h 7.444 v 25.169 c 0,3.186 -0.148,5.578 -0.443,7.173 3.426,-0.415 6.232,-1.061 8.417,-1.949 0.826,-0.354 1.242,-0.796 1.242,-1.33 0,-0.472 -0.416,-0.826 -1.242,-1.061 -1.123,-0.532 -2.363,-0.889 -3.72,-1.067 V -1.152 h 8.771 l 4.255,5.05 c 2.36,-1.71 4.604,-3.394 6.734,-5.05 0.472,-0.295 0.708,-0.65 0.708,-1.063 0,-0.887 -0.444,-1.328 -1.329,-1.328 H 21.976 v -41.469 h 13.378 l 4.609,5.228 c 2.363,-1.771 4.578,-3.486 6.644,-5.138 0.531,-0.354 0.797,-0.767 0.797,-1.239 0,-0.947 -0.471,-1.42 -1.416,-1.42 H 2.48 c -4.194,-0.059 -7.058,-0.148 -8.593,-0.267 l -1.685,3.811 c 2.54,-0.649 5.966,-0.975 10.278,-0.975 H 17.722 V -3.543 H 10.278 C 6.085,-3.603 3.218,-3.721 1.684,-3.897 Z m -28.799,32.521 c 1.771,-0.947 3.309,-1.951 4.609,-3.013 1.476,-0.886 2.659,-1.774 3.544,-2.658 1.003,-0.889 1.684,-1.684 2.039,-2.393 0.294,-0.593 0.442,-1.184 0.442,-1.77 0,-1.184 -0.148,-2.1 -0.442,-2.749 -0.534,-0.77 -1.212,-1.152 -2.039,-1.152 -0.472,0 -0.856,0.118 -1.151,0.355 -0.296,0.235 -0.562,0.828 -0.797,1.772 -0.355,1.299 -0.916,2.538 -1.685,3.722 -0.767,1.239 -1.566,2.36 -2.392,3.363 -0.887,1.065 -2.038,2.248 -3.457,3.547 z M -38.632,15.95 c 2.302,-0.472 5.581,-0.708 9.833,-0.708 h 15.242 l 2.835,2.748 c 1.95,-1.124 3.426,-2.248 4.431,-3.369 0.353,-0.354 0.533,-0.649 0.533,-0.886 0,-0.357 -0.386,-0.739 -1.152,-1.152 -0.889,-0.531 -1.538,-0.826 -1.951,-0.886 -2.953,-5.611 -5.758,-10.1 -8.417,-13.468 -0.768,-1.004 -1.536,-1.95 -2.305,-2.834 3.544,-1.361 6.38,-2.778 8.508,-4.256 2.243,-1.298 3.868,-2.659 4.873,-4.076 0.826,-0.887 1.241,-1.772 1.241,-2.658 0,-1.652 -0.622,-2.478 -1.862,-2.478 -0.592,0 -1.181,0.146 -1.771,0.441 -0.534,0.236 -1.094,0.858 -1.683,1.861 -1.419,2.421 -2.955,4.341 -4.61,5.761 -1.358,1.18 -3.012,2.419 -4.961,3.721 v -40.23 c 0,-0.649 0.058,-1.149 0.178,-1.505 0.116,-0.65 0.177,-1.448 0.177,-2.395 0,-0.886 -1.065,-1.444 -3.19,-1.681 -1.005,0 -1.507,0.324 -1.507,0.972 v 41.913 c -0.532,-0.473 -1.064,-0.944 -1.594,-1.417 -3.015,-2.718 -6.736,-5.316 -11.164,-7.799 l -1.33,1.33 c 4.666,3.131 8.476,6.084 11.43,8.862 2.715,2.658 5.11,5.552 7.178,8.683 1.947,2.954 4.104,7.03 6.469,12.229 h -15.598 c -4.666,0 -7.502,-0.09 -8.504,-0.267 z"
             style="fill:#ffffff;fill-opacity:1;fill-rule:nonzero;stroke:none"
             id="path46" />
        </g>
      </g>
    </g>
  </g>
</svg>
